<svg width="459.0622314453125px" height="220.4px" xmlns="http://www.w3.org/2000/svg" viewBox="20.46888427734376 -35.2 459.0622314453125 220.4" style="background: rgb(245, 245, 241);" preserveAspectRatio="xMidYMid"><defs><filter id="editing-hover" x="-100%" y="-100%" width="300%" height="300%"><feFlood flood-color="#bbbbb4" result="flood"></feFlood><feComposite operator="in" in2="SourceAlpha" in="flood" result="shadow"></feComposite><feOffset dx="3.5" dy="-1.3" in="SourceGraphic" result="offset-1"></feOffset><feOffset dx="-3.5" dy="1.3" in="shadow" result="offset-2"></feOffset><feMerge><feMergeNode in="offset-2"></feMergeNode><feMergeNode in="offset-1"></feMergeNode></feMerge></filter></defs><g filter="url(#editing-hover)"><g transform="translate(91.04934418201447, 121.37499737739563)"><path d="M111.63-33.75L111.63-33.75L123.07-33.98L123.07-33.98Q127.32-33.98 127.32-33.39L127.32-33.39L127.32-33.39Q127.32-31.86 110.09-30.68L110.09-30.68L110.09-30.68Q99.12-9.20 99.12-1.42L99.12-1.42L99.12-1.42Q99.12 4.01 102.54 4.01L102.54 4.01L102.54 4.01Q103.84 4.01 105.79 2.42L105.79 2.42L105.79 2.42Q107.73 0.83 108.15 0.83L108.15 0.83L108.15 0.83Q108.56 0.83 108.56 1.42L108.56 1.42L108.56 1.42Q107.97 3.54 104.96 4.96L104.96 4.96L104.96 4.96Q101.95 6.37 99.89 6.37L99.89 6.37L99.89 6.37Q97.82 6.37 96.64 6.14L96.64 6.14L96.64 6.14Q93.81 5.07 93.81-0.71L93.81-0.71L93.81-0.71Q93.81-12.63 102.90-31.03L102.90-31.03L88.74-30.68L88.74-30.68Q72.92-15.22 56.99-3.54L56.99-3.54L56.99-3.54Q33.16 13.81 19.71 13.81L19.71 13.81L19.71 13.81Q18.88 13.81 18.05 13.69L18.05 13.69L18.05 13.69Q-0.12 12.15-0.12-4.96L-0.12-4.96L-0.12-4.96Q-0.12-15.10 6.25-26.43L6.25-26.43L6.25-26.43Q14.75-41.54 29.50-52.22L29.50-52.22L29.50-52.22Q44.25-62.89 55.93-62.89L55.93-62.89L55.93-62.89Q67.61-62.89 67.61-54.28L67.61-54.28L67.61-54.28Q67.61-48.50 64.07-41.42L64.07-41.42L64.07-41.42Q60.53-34.34 56.88-32.45L56.88-32.45L56.88-32.45Q56.52-32.33 56.11-32.33L56.11-32.33L56.11-32.33Q55.70-32.33 55.70-32.57L55.70-32.57L59.59-38.94L59.59-38.94Q63.60-45.19 63.60-49.91L63.60-49.91L63.60-49.91Q63.60-54.63 61.54-57.53L61.54-57.53L61.54-57.53Q59.47-60.42 54.99-60.42L54.99-60.42L54.99-60.42Q45.78-60.42 32.98-50.15L32.98-50.15L32.98-50.15Q20.18-39.88 13.51-24.90L13.51-24.90L13.51-24.90Q6.84-9.91 6.84-1.53L6.84-1.53L6.84-1.53Q6.84 11.09 19.71 11.09L19.71 11.09L19.71 11.09Q31.98 11.09 52.98-4.72L52.98-4.72L52.98-4.72Q62.30-11.68 83.31-31.03L83.31-31.03L83.31-31.03Q79.18-30.80 75.64-30.21L75.64-30.21L75.64-30.21Q68.09-28.79 68.56-30.68L68.56-30.68L68.56-30.68Q69.03-35.05 73.04-35.05L73.04-35.05L73.04-35.05Q80.83-34.10 86.14-34.10L86.14-34.10L86.14-34.10Q96.29-43.42 116.47-64.66L116.47-64.66L116.47-64.66Q130.04-78.94 132.99-78.94L132.99-78.94L132.99-78.94Q134.28-78.94 134.28-76.94L134.28-76.94L134.28-76.94Q134.28-74.93 133.22-70.68L133.22-70.68L133.22-70.68Q132.16-66.43 130.86-65.49L130.86-65.49L130.86-65.49Q128.15-63.60 125.79-60.36L125.79-60.36L125.79-60.36Q123.43-57.11 119.06-48.20L119.06-48.20L119.06-48.20Q114.70-39.29 111.63-33.75ZM121.07-62.54L121.07-62.54L90.86-34.22L97.82-34.22L97.82-34.22Q100.30-34.10 103.96-34.10L103.96-34.10L103.96-34.10Q107.38-40.83 121.07-62.54ZM151.16-38.00L151.16-38.00L168.15-38.23L168.15-38.23Q168.50-38.00 168.50-37.88L168.50-37.88L168.50-37.88Q168.50-36.82 153.81-34.93L153.81-34.93L153.81-34.93Q139.12-33.04 137.94-32.69L137.94-32.69L137.94-32.69Q135.70-30.68 129.68-20.71L129.68-20.71L129.68-20.71Q123.66-10.74 123.66-6.14L123.66-6.14L123.66-6.14Q123.66-1.77 129.68-1.77L129.68-1.77L129.68-1.77Q132.51-1.77 137.12-3.54L137.12-3.54L137.12-3.54Q141.72-5.31 144.20-6.84L144.20-6.84L144.20-6.84Q150.80-10.97 158.36-19.00L158.36-19.00L158.36-19.00Q160.01-20.65 160.60-20.65L160.60-20.65L160.60-20.65Q160.95-20.65 160.95-19.94L160.95-19.94L160.95-19.94Q160.95-19.23 159.18-17.11L159.18-17.11L159.18-17.11Q153.05-9.56 145.38-4.96L145.38-4.96L145.38-4.96Q136.17 0.71 127.79 0.71L127.79 0.71L127.79 0.71Q124.14 0.71 121.84-0.89L121.84-0.89L121.84-0.89Q119.53-2.48 119.53-7.32L119.53-7.32L119.53-7.32Q119.53-12.15 123.78-20.59L123.78-20.59L123.78-20.59Q128.03-29.03 130.27-33.16L130.27-33.16L130.27-33.16Q128.62-32.80 127.44-32.80L127.44-32.80L127.44-32.80Q124.02-32.80 124.02-35.52L124.02-35.52L124.02-35.52Q124.02-37.52 126.85-38.35L126.85-38.35L126.85-38.35Q127.20-38.35 127.91-38.47L127.91-38.47L134.76-38.47L134.76-38.47Q136.88-41.18 139.59-44.72L139.59-44.72L139.59-44.72Q142.90-48.97 144.08-48.97L144.08-48.97L144.08-48.97Q145.26-48.97 147.03-48.03L147.03-48.03L147.03-48.03Q148.80-47.08 148.80-45.78L148.80-45.78L148.80-45.78Q148.80-44.49 143.13-38.11L143.13-38.11L143.13-38.11Q146.20-38.00 151.16-38.00ZM161.42 1.53L161.42 1.53L161.42 1.53Q160.13 1.53 159.06 1.18L159.06 1.18L159.06 1.18Q151.51-0.94 151.51-7.32L151.51-7.32L151.51-7.32Q151.51-15.58 161.90-26.43L161.90-26.43L161.90-26.43Q172.28-37.29 180.54-37.29L180.54-37.29L180.54-37.29Q183.25-37.29 184.97-35.81L184.97-35.81L184.97-35.81Q186.68-34.34 186.68-32.21L186.68-32.21L186.68-32.21Q186.68-25.61 176.71-19.59L176.71-19.59L176.71-19.59Q166.73-13.57 160.48-13.57L160.48-13.57L160.48-13.57Q159.54-13.57 158.83-13.81L158.83-13.81L158.83-13.81Q157.06-10.62 157.06-7.08L157.06-7.08L157.06-7.08Q157.06-0.94 162.90-0.94L162.90-0.94L162.90-0.94Q168.74-0.94 178.06-8.85L178.06-8.85L178.06-8.85Q185.26-14.63 190.33-21.12L190.33-21.12L190.33-21.12Q191.40-22.54 192.16-22.54L192.16-22.54L192.16-22.54Q192.93-22.54 192.93-21.83L192.93-21.83L192.93-21.83Q192.93-21.12 191.99-19.82L191.99-19.82L191.99-19.82Q185.61-11.45 176.65-4.96L176.65-4.96L176.65-4.96Q167.68 1.53 161.42 1.53ZM183.73-32.45L183.73-32.45L183.73-32.45Q183.73-33.87 180.72-33.87L180.72-33.87L180.72-33.87Q177.71-33.87 172.16-29.26L172.16-29.26L172.16-29.26Q164.73-23.13 160.60-16.40L160.60-16.40L160.60-16.40Q161.31-16.17 162.13-16.17L162.13-16.17L162.13-16.17Q166.62-16.17 174.11-20.95L174.11-20.95L174.11-20.95Q181.60-25.72 183.49-31.39L183.49-31.39L183.49-31.39Q183.73-31.98 183.73-32.45ZM190.33-5.90L190.33-5.90L190.33-5.90Q190.33-2.36 194.23-2.36L194.23-2.36L194.23-2.36Q198.12-2.36 204.26-6.49L204.26-6.49L204.26-6.49Q210.39-10.62 216.18-17.70L216.18-17.70L216.18-17.70Q217.59-19.59 218.42-19.59L218.42-19.59L218.42-19.59Q219.24-19.59 219.24-18.88L219.24-18.88L219.24-18.88Q219.24-18.17 214.41-12.74L214.41-12.74L214.41-12.74Q202.61 0.24 194.70 0.24L194.70 0.24L194.70 0.24Q190.81 0.24 188.09-1.59L188.09-1.59L188.09-1.59Q185.38-3.42 185.38-7.26L185.38-7.26L185.38-7.26Q185.38-11.09 187.38-16.17L187.38-16.17L187.38-16.17Q190.81-24.19 198.36-36.34L198.36-36.34L198.36-36.34Q212.16-58.76 217.95-58.76L217.95-58.76L217.95-58.76Q219.13-58.76 220.37-57.88L220.37-57.88L220.37-57.88Q221.60-56.99 221.72-55.93L221.72-55.93L221.72-55.93Q219.01-52.27 211.28-41.89L211.28-41.89L211.28-41.89Q203.55-31.51 200.60-26.96L200.60-26.96L200.60-26.96Q197.65-22.42 196.18-20.18L196.18-20.18L196.18-20.18Q194.70-17.94 193.99-16.70L193.99-16.70L193.99-16.70Q193.28-15.46 192.34-13.45L192.34-13.45L192.34-13.45Q190.33-9.44 190.33-5.90ZM240.01-48.14L240.01-48.14Q241.78-48.14 243.38-47.02L243.38-47.02L243.38-47.02Q244.97-45.90 244.97-44.37L244.97-44.37L244.97-44.37Q244.97-42.83 243.49-41.71L243.49-41.71L243.49-41.71Q242.02-40.59 240.25-40.59L240.25-40.59L240.25-40.59Q238.48-40.59 237.00-41.89L237.00-41.89L237.00-41.89Q235.53-43.19 235.53-44.84L235.53-44.84L235.53-44.84Q235.53-48.14 240.01-48.14L240.01-48.14ZM218.65 1.30L218.65 1.30L218.65 1.30Q212.64 1.30 212.64-6.49L212.64-6.49L212.64-6.49Q212.64-12.86 219.60-24.13L219.60-24.13L219.60-24.13Q226.56-35.40 230.81-35.52L230.81-35.52L230.81-35.52Q231.99-35.52 233.46-34.57L233.46-34.57L233.46-34.57Q234.94-33.63 234.94-32.69L234.94-32.69L234.94-32.69Q234.35-31.86 233.52-30.86L233.52-30.86L233.52-30.86Q232.70-29.85 231.75-28.67L231.75-28.67L231.75-28.67Q230.81-27.49 229.16-25.31L229.16-25.31L229.16-25.31Q227.50-23.13 225.97-21.12L225.97-21.12L225.97-21.12Q217.12-9.68 217.12-5.37L217.12-5.37L217.12-5.37Q217.12-1.06 220.07-1.06L220.07-1.06L220.07-1.06Q222.55-1.06 226.80-3.78L226.80-3.78L226.80-3.78Q236.71-9.91 242.49-17.23L242.49-17.23L242.49-17.23Q244.61-19.94 245.38-19.94L245.38-19.94L245.38-19.94Q246.15-19.94 246.15-19.00L246.15-19.00L246.15-19.00Q246.15-18.05 243.43-15.22L243.43-15.22L243.43-15.22Q240.72-12.39 239.13-10.74L239.13-10.74L239.13-10.74Q237.53-9.09 236.94-8.55L236.94-8.55L236.94-8.55Q236.35-8.02 234.76-6.55L234.76-6.55L234.76-6.55Q233.17-5.07 232.34-4.48L232.34-4.48L232.34-4.48Q231.52-3.89 229.98-2.71L229.98-2.71L229.98-2.71Q228.45-1.53 227.27-1.00L227.27-1.00L227.27-1.00Q226.09-0.47 224.55 0.24L224.55 0.24L224.55 0.24Q222.08 1.30 218.65 1.30ZM247.09 1.53L247.09 1.53L247.09 1.53Q245.79 1.53 244.73 1.18L244.73 1.18L244.73 1.18Q237.18-0.94 237.18-7.32L237.18-7.32L237.18-7.32Q237.18-15.58 247.56-26.43L247.56-26.43L247.56-26.43Q257.95-37.29 266.21-37.29L266.21-37.29L266.21-37.29Q268.92-37.29 270.63-35.81L270.63-35.81L270.63-35.81Q272.34-34.34 272.34-32.21L272.34-32.21L272.34-32.21Q272.34-25.61 262.37-19.59L262.37-19.59L262.37-19.59Q252.40-13.57 246.15-13.57L246.15-13.57L246.15-13.57Q245.20-13.57 244.50-13.81L244.50-13.81L244.50-13.81Q242.73-10.62 242.73-7.08L242.73-7.08L242.73-7.08Q242.73-0.94 248.57-0.94L248.57-0.94L248.57-0.94Q254.41-0.94 263.73-8.85L263.73-8.85L263.73-8.85Q270.93-14.63 276.00-21.12L276.00-21.12L276.00-21.12Q277.06-22.54 277.83-22.54L277.83-22.54L277.83-22.54Q278.60-22.54 278.60-21.83L278.60-21.83L278.60-21.83Q278.60-21.12 277.65-19.82L277.65-19.82L277.65-19.82Q271.28-11.45 262.31-4.96L262.31-4.96L262.31-4.96Q253.35 1.53 247.09 1.53ZM269.39-32.45L269.39-32.45L269.39-32.45Q269.39-33.87 266.38-33.87L266.38-33.87L266.38-33.87Q263.38-33.87 257.83-29.26L257.83-29.26L257.83-29.26Q250.40-23.13 246.27-16.40L246.27-16.40L246.27-16.40Q246.97-16.17 247.80-16.17L247.80-16.17L247.80-16.17Q252.28-16.17 259.78-20.95L259.78-20.95L259.78-20.95Q267.27-25.72 269.16-31.39L269.16-31.39L269.16-31.39Q269.39-31.98 269.39-32.45ZM295.47 0.59L295.47 0.59L295.47 0.59Q286.62 0.59 286.62-9.20L286.62-9.20L286.62-9.20Q286.62-14.16 289.22-20.06L289.22-20.06L289.22-20.06Q291.81-25.96 294.88-29.97L294.88-29.97L294.88-29.97Q294.29-29.85 293.35-29.85L293.35-29.85L293.35-29.85Q290.52-29.85 288.63-33.87L288.63-33.87L279.90-22.54L279.90-22.54Q272.58-13.45 271.40-13.45L271.40-13.45L271.40-13.45Q270.81-13.45 270.81-13.92L270.81-13.92L270.81-13.92Q270.81-15.10 272.82-17.35L272.82-17.35L272.82-17.35Q283.08-29.26 287.33-37.52L287.33-37.52L287.33-37.52Q290.04-47.79 294.17-47.79L294.17-47.79L294.17-47.79Q296.89-47.79 296.89-45.43L296.89-45.43L296.89-45.43Q296.89-43.07 293.94-39.41L293.94-39.41L291.11-35.64L291.11-35.64Q291.11-33.16 294.76-33.16L294.76-33.16L294.76-33.16Q296.89-33.16 299.48-34.69L299.48-34.69L302.55-36.58L302.55-36.58Q302.79-36.70 303.73-36.70L303.73-36.70L303.73-36.70Q304.68-36.70 305.74-35.52L305.74-35.52L305.74-35.52Q306.80-34.34 306.45-33.39L306.45-33.39L298.30-23.13L298.30-23.13Q290.75-13.45 290.75-7.85L290.75-7.85L290.75-7.85Q290.75-2.24 295.94-2.24L295.94-2.24L295.94-2.24Q301.37-2.24 309.28-8.02L309.28-8.02L309.28-8.02Q314.00-11.45 317.89-15.69L317.89-15.69L317.89-15.69Q321.55-19.94 321.90-19.94L321.90-19.94L321.90-19.94Q322.73-19.94 322.73-19.06L322.73-19.06L322.73-19.06Q322.73-18.17 321.67-16.99L321.67-16.99L317.89-12.74L317.89-12.74Q314.71-9.44 310.81-6.37L310.81-6.37L310.81-6.37Q301.49 0.59 295.47 0.59Z" fill="#170909"></path></g></g><style>text {
  font-size: 64px;
  font-family: Arial Black;
  dominant-baseline: central;
  text-anchor: middle;
}</style></svg>